<svg id="Capa_1" data-name="Capa 1" xmlns="http://www.w3.org/2000/svg" viewBox="0 0 1080 1080"><defs><style>.cls-1{fill:#142a43;}.cls-2{fill:#fff;}.cls-3{fill:#308fb1;}.cls-4{fill:#2fab99;}.cls-5{fill:#499c5f;}.cls-6{fill:#de6722;}.cls-7{fill:#0f3b5e;}.cls-8{fill:#0c507b;}.cls-9{fill:#e58d27;}.cls-10{fill:#15626c;}</style></defs><title>logo_svg</title><path class="cls-1" d="M964.44,710.37V369.68c0-39-14.53-71.11-48.43-90.45L593.85,86.08a108.67,108.67,0,0,0-107.7,0L170.39,274.15a108.68,108.68,0,0,0-54.83,94.4v343a108.68,108.68,0,0,0,54.83,94.4L486.15,993.17a108.67,108.67,0,0,0,107.7,0L917.56,799.75C951.46,780.41,964.44,749.4,964.44,710.37Z"/><circle class="cls-2" cx="398.8" cy="392.18" r="37.73"/><path class="cls-2" d="M671.41,659.1c-24.86,0-49.72.17-74.58-.14-5.68-.07-7.59,1.75-6.94,7.14a44.75,44.75,0,0,1,0,6.34c-.31,12.43-3.73,18.18-12.64,21.29-11,3.85-24.65,1.31-30.94-6-5.37-6.21-4.54-14.3-5.89-21.63-4-21.7-9.19-43.44-8.56-65.54.71-25.27,3.75-50.48,5.59-75.72,1.35-18.43,2.36-36.88,3.61-55.31,1-14.74,1.71-29.52,3.33-44.19,2.19-20,20.32-35.83,40.55-35.86q85.7-.15,171.37,0c22.68,0,40.89,15.38,43.2,37.77s3.29,44.68,4.95,67c1.93,25.77,4.19,51.51,5.88,77.29,1.49,22.84,3.37,45.67-2.1,68.42-2.75,11.44-3.35,23.38-5.5,35-3.4,18.34-28.08,27-42.74,15.29-7-5.54-6.75-13.25-6.81-20.89-.07-10.23,0-10.31-10.34-10.34-23.8,0-47.6,0-71.4,0Zm1-120.28v0c29.34,0,58.68.1,88,0,11-.06,17.38-7.29,16.77-18.21q-2.23-40.32-4.38-80.62c-.49-9.31-6.16-15.56-15.33-15.58q-84.84-.18-169.67,0c-8.69,0-14.29,5.11-15.26,13.79-3,27-3.73,54.2-4.76,81.34-.51,13.34,5.59,19.3,19,19.34C615.32,538.87,643.86,538.82,672.4,538.82ZM586,578.27a25.86,25.86,0,0,0-26,26c0,13.35,11.91,25,25.53,24.87a25.65,25.65,0,0,0,25.3-25C611.08,589.6,600.25,578.32,586,578.27Zm173.68,0c-14.36,0-25.21,10.92-25.26,25.41s10.7,25.53,25.12,25.51a25.35,25.35,0,0,0,25.15-25.9C784.56,589,773.79,578.26,759.72,578.26Z"/><path class="cls-1" d="M672.4,538.82c-28.54,0-57.08,0-85.63,0-13.4,0-19.5-6-19-19.34,1-27.14,1.75-54.32,4.76-81.34,1-8.68,6.57-13.77,15.26-13.79q84.84-.18,169.67,0c9.17,0,14.84,6.27,15.33,15.58q2.15,40.31,4.38,80.62c.61,10.92-5.74,18.15-16.77,18.21-29.33.15-58.67,0-88,0Z"/><path class="cls-1" d="M586,578.27c14.21.05,25,11.33,24.85,25.87a25.65,25.65,0,0,1-25.3,25c-13.62.11-25.56-11.52-25.53-24.87A25.86,25.86,0,0,1,586,578.27Z"/><path class="cls-1" d="M759.72,578.26c14.07,0,24.84,10.76,25,25a25.35,25.35,0,0,1-25.15,25.9c-14.42,0-25.17-10.9-25.12-25.51S745.36,578.27,759.72,578.26Z"/><path class="cls-3" d="M475.32,136,392,321.84h0a70.47,70.47,0,0,0-46.05,23.44L194.05,304.67Z"/><path class="cls-4" d="M761.68,230,444.87,338.6a70.79,70.79,0,0,0-15.93-10.36c7.42-16.8,83.12-188.24,93.34-209.75,10.77-22.64,45.86-4.54,45.86-4.54Z"/><path class="cls-5" d="M920.14,359,834.49,475.77s-.14-58.09-12.44-81.3c-6.61-12.45-18.5-21.88-27-26.49-9.74-5.3-19.69-10.16-30.77-10.27l-181.54-1.79a44,44,0,0,0-6.59.41c-14.1,1.94-59.86,12.16-63.51,62.84-4.35,60-10.39,153-10.39,153L434,453.47A70.72,70.72,0,0,0,464.86,367L802.42,253.18l104.13,62.25S937.68,335.23,920.14,359Z"/><path class="cls-6" d="M725.74,692.33s14.67,50.84,71.28,31.51A48.18,48.18,0,0,0,810.93,716c3.92-3,10.59-5.74,18.37,1.51L904,764.91,580,962.46s-38.49,18.49-47.92,4.9L495.88,911.9,617.37,690.44Z"/><path class="cls-7" d="M160.67,738.73c-.12-2.53,65.64-55.46,65.64-55.46L464.57,931.15,171.42,759.67S161.23,751.18,160.67,738.73Z"/><path class="cls-8" d="M342.51,434.89,203.67,655l-47.53,39s-1.13-322,0-344.64C157,333.21,166,334.47,171.32,336c3.87,1.11,7.51,2.44,11.67,3.67L328.74,376l.67,2.76a71.74,71.74,0,0,0-1.27,13.45A70.31,70.31,0,0,0,342.51,434.89Z"/><path class="cls-9" d="M832.79,673.84s12.83-26,9.06-83-4.18-64.14-4.18-64.14l90.58-116.58V735.34Z"/><path class="cls-10" d="M478.14,601.78,255.18,642l114-185.62a70.29,70.29,0,0,0,29.66,6.51c.82,0,1.63,0,2.44-.05Z"/><path class="cls-10" d="M269.89,674.22,471.36,883l84.32-153.36s-34.52-9.06-40.18-34-14.43-65.64-14.43-65.64Z"/></svg>