<svg width="687" height="617" viewBox="0 0 687 617" fill="none" xmlns="http://www.w3.org/2000/svg">
<path d="M56.25 517.019C41.0742 515.038 13.6758 507.21 3.51562 501.96L0 500.144V465.796C0 446.905 0.35156 431.097 0.785154 430.663C1.21875 430.23 2.67187 430.593 4.00781 431.472C8.44922 434.378 27.4102 441.433 36.3281 443.519C47.7891 446.19 64.9805 446.167 75 443.46C90.7617 439.218 91.8984 438.257 150.223 379.745C201.398 328.417 204.926 324.608 206.836 318.69C209.215 311.378 208.723 302.272 205.629 296.132C202.934 290.788 95.6602 183.233 89.2031 179.413C80.7891 174.409 70.1719 172.077 55.8867 172.077C40.2188 172.077 28.4766 174.831 13.0312 182.12C6.97265 184.98 1.57031 187.312 1.01953 187.312C-0.339849 187.312 -0.292964 122.612 1.06641 119.038C1.875 116.917 4.7461 115.23 13.0781 111.96C48.2461 98.2139 84.7031 95.6709 114.211 104.905C134.32 111.21 129.984 107.401 224.789 201.878C252.48 229.476 272.602 249.655 286.734 264.058L265.465 243.409L249.527 259.593C232.652 276.761 229.102 282.105 225.621 295.663C222.117 309.327 224.086 323.706 231.152 336.069C233.203 339.667 241.664 349.534 250.031 358.112C258.363 366.655 265.664 373.64 266.227 373.64C266.742 373.64 275.543 365.319 286.641 354.398C274.465 366.773 258.012 383.261 236.449 404.73C136.312 504.409 139.664 501.257 127.617 507.011C111.949 514.499 101.016 516.784 79.1016 517.194C68.7891 517.394 58.5 517.312 56.25 517.019ZM250.723 185.437C168.504 103.042 157.805 92.7295 149.414 87.7725C125.52 73.6514 101.051 68.0733 68.5547 69.3272C48.1523 70.1124 33.9961 72.7842 15.1523 79.4288L2.20313 83.9873L2.97655 80.2842C3.41015 78.2335 5.28516 72.7022 7.14844 67.9912C19.6055 36.4912 50.2617 11.5889 87.1055 3.03422C100.266 -0.024371 129.328 -0.563428 142.383 2.0147C165.105 6.50298 187.359 16.4171 203.027 29.0499C207.703 32.8116 241.02 65.4483 277.078 101.565L342.621 167.249L363.586 147.175C375.129 136.124 407.063 104.882 434.566 77.7413C457.371 55.2295 477.703 35.7881 487.078 27.4561C461.039 51.6084 293.039 216.257 290.051 220.722C289.125 222.093 294.563 228.14 315.82 249.421C330.633 264.245 342.949 276.374 343.184 276.374C344.215 276.374 370.066 251.425 407.848 214.089C370.91 250.78 343.746 277.546 343.418 277.546C343.008 277.546 301.289 236.097 250.723 185.437ZM93.3516 614.343C51.6914 606.819 17.2266 579.105 5.15624 543.456C3.58593 538.815 2.53125 534.784 2.80078 534.503C3.08203 534.233 9.03516 535.851 16.043 538.124C35.6016 544.44 50.1211 547.112 69.1406 547.874C104.461 549.292 129.023 542.683 156.445 524.355C160.711 521.507 196.043 487.276 246.094 437.507C261.527 422.155 276.434 407.366 289.547 394.358L382.887 487.581C434.297 538.933 479.684 583.593 483.738 586.839C491.941 593.401 502.113 599.448 512.566 604.194C501.656 599.366 492.516 593.847 483.738 586.851C479.684 583.616 446.402 551.378 409.77 515.202L343.184 449.448L274.418 518.003C203.051 589.171 198.387 593.331 180.117 602.038C169.336 607.183 153.164 612.339 141.34 614.401C128.59 616.628 105.82 616.605 93.3516 614.343ZM460.371 161.894C497.578 124.827 529.816 93.5381 533.203 91.2295C538.535 87.6085 544.5 84.3038 550.828 81.421C544.465 84.3155 538.5 87.6436 533.203 91.2764C530.262 93.3037 499.465 123.198 460.371 161.894ZM491.109 24.0108C491.438 23.753 491.707 23.5538 491.93 23.4014C508.172 12.4209 526.992 5.2725 546.492 2.07328C526.43 5.57718 506.391 13.3233 491.109 24.0108ZM581.074 0.561566C598.523 1.88578 615.633 6.38578 631.055 14.167C635.156 16.2295 639.141 18.6202 642.984 21.3038C626.086 9.71391 605.391 2.76469 581.074 0.561566ZM525.844 609.468C530.59 611.073 535.254 612.327 539.648 613.159C541.91 613.593 544.207 614.038 546.164 614.437C539.086 613.522 532.945 611.964 525.844 609.468ZM578.625 615.573C590.238 615.257 594.984 614.718 601.816 612.948C594.258 614.976 590.496 615.456 578.625 615.573ZM675.809 57.5733C678.398 62.2608 680.578 67.0772 682.254 71.9639C682.371 72.3155 682.488 72.6553 682.605 73.0069C680.789 68.085 678.246 62.2374 675.809 57.5733ZM333.387 351.034C335.004 349.452 336.117 348.386 336.656 347.87L344.613 340.382L344.66 340.44L333.387 351.034ZM646.266 592.054C663.281 579.444 675.973 562.898 682.266 544.218C675.949 562.956 663.305 579.456 646.266 592.054ZM316.16 297.093C315.48 295.593 314.613 294.058 313.477 292.394C314.25 293.366 314.754 294.069 315 294.538C315.422 295.347 315.809 296.202 316.16 297.093ZM316.746 320.331C316.852 319.98 316.957 319.616 317.062 319.23C317.203 318.737 317.332 318.233 317.461 317.741C317.262 318.632 317.016 319.499 316.746 320.331Z" fill="#2D968F"/>
<path d="M551.367 615.515C550.078 615.21 544.805 614.144 539.648 613.159C521.578 609.726 499.16 599.167 483.738 586.839C479.684 583.593 434.297 538.933 382.887 487.581L289.406 394.229L303.199 380.331C310.781 372.69 323.215 360.597 330.832 353.437L344.66 340.44L435.129 430.663C492.434 487.827 528.07 522.503 532.371 525.292C572.402 551.249 620.004 555.128 675.363 536.952C680.402 535.3 684.727 534.151 684.973 534.397C685.219 534.644 684 539.061 682.266 544.218C671.543 576.058 642.223 601.71 604.559 612.21C595.102 614.847 590.754 615.339 573.633 615.69C562.676 615.901 552.656 615.831 551.367 615.515ZM584.824 515.366C572.543 512.706 559.805 507.784 552.305 502.792C549.598 500.987 508.523 460.815 461.039 413.519C399.539 352.253 374.074 326.144 372.527 322.745C369.176 315.362 369.504 301.897 373.207 294.479C375.434 290.015 396.094 268.733 463.148 201.866C547.758 117.479 550.441 114.937 559.125 110.788C592.77 94.7334 640.57 96.2217 681.152 114.585L686.719 117.104V152.683V188.261L680.484 184.886C671.918 180.245 659.848 175.827 650.156 173.788C632.871 170.155 610.242 172.698 598.535 179.601C595.793 181.218 568.699 207.479 538.324 237.948C476.953 299.53 478.359 297.772 479.613 311.542C480.023 316.065 481.301 320.331 483.223 323.542C484.852 326.284 510.504 352.511 540.211 381.843C599.812 440.671 600.516 441.233 618.164 444.644C634.816 447.866 655.91 444.526 674.871 435.655C680.273 433.136 685.148 431.061 685.711 431.061C686.262 431.061 686.719 446.905 686.719 466.265V501.456L681.738 503.577C673.43 507.116 658.605 511.769 647.461 514.335C631.277 518.061 599.648 518.577 584.824 515.366ZM250.031 358.112C241.664 349.534 233.203 339.667 231.152 336.069C224.086 323.706 222.117 309.327 225.621 295.663C229.102 282.104 232.652 276.761 249.527 259.593L265.465 243.409L288.656 265.921C313.629 290.155 317.262 295.077 318.41 306.21C318.809 310.147 318.34 314.741 317.062 319.229C315.164 325.921 314.203 327.069 291.188 349.909C278.039 362.964 266.801 373.64 266.227 373.64C265.664 373.64 258.363 366.655 250.031 358.112ZM315.82 249.421C294.562 228.14 289.125 222.093 290.051 220.722C293.238 215.964 484.137 28.9795 490.301 24.585C513.621 7.94434 548.414 -1.77052 577.406 0.26854C621.059 3.33885 653.402 21.2334 673.477 53.4482C678.82 62.0146 686.25 80.9404 685.031 82.8974C684.68 83.4599 681.363 82.6982 677.648 81.1982C667.242 76.9912 649.172 72.6435 633.527 70.5693C618.398 68.5654 596.461 68.8935 583.008 71.331C565.207 74.5537 547.078 81.7959 533.203 91.2295C529.652 93.6436 494.59 127.733 455.273 166.979C393.234 228.913 344.602 276.374 343.184 276.374C342.949 276.374 330.633 264.245 315.82 249.421Z" fill="#0B2436"/>
</svg>
