<svg width="302" height="376" viewBox="0 0 302 376" fill="none" xmlns="http://www.w3.org/2000/svg">
<path d="M297 335.13C297 337.074 296.854 339.002 296.562 340.865C296.497 341.335 296.432 341.805 296.335 342.242C296.286 342.566 296.221 342.858 296.173 343.165C292.376 361.327 276.005 375 256.34 375C237.487 375 221.651 362.428 217.043 345.385C216.767 343.943 216.475 342.501 216.134 341.076C214.041 331.776 210.991 322.817 206.902 314.263C198.855 297.333 188.438 282.996 175.831 271.542C167.686 264.154 159.493 256.896 151.25 249.687C142.521 242.056 133.759 234.458 125.047 226.779C111.45 214.806 97.6587 203.109 84.2244 190.845C75.5764 182.972 67.0744 174.839 58.8321 166.253C43.759 150.522 30.7952 132.377 20.8654 110.862C11.6658 90.9351 5.2407 69.9388 1.31423 47.9381C0.87615 45.4594 0.454282 42.9807 0.0811056 40.4696C0.0162053 39.6757 0 38.8657 0 38.0719C0 17.0432 17.231 0 38.5183 0C57.0474 0 72.5261 12.9445 76.1929 30.1983C76.3227 30.9922 76.4688 31.8022 76.6148 32.5798C78.0101 39.935 80.0058 47.1282 82.683 54.0783C90.6819 74.9935 103.11 90.9999 118.054 103.928C129.103 113.454 140.185 122.932 151.266 132.393C162.932 142.389 174.598 152.369 186.264 162.397C197.037 171.68 207.795 180.979 218.243 190.862C225.269 197.488 232.165 204.389 238.833 211.68C259.033 233.81 275.518 259.586 286.567 290.707C290.964 303.085 294.242 315.77 296.481 328.779C296.513 328.909 296.53 329.038 296.546 329.184C296.854 331.112 297 333.089 297 335.13Z" fill="#082A3F"/>
<path d="M302 38.9585C302 40.8054 301.87 42.6362 301.594 44.4182C301.53 44.8557 301.465 45.2931 301.367 45.7305C301.335 46.0383 301.27 46.3137 301.221 46.5891C297.361 69.4322 290.807 91.2061 281.285 111.83C271.358 133.344 258.413 151.506 243.327 167.22C235.281 175.612 226.992 183.567 218.54 191.262C204.898 203.737 190.915 215.596 177.11 227.763C168.627 235.247 160.078 242.651 151.562 250.104C143.126 257.524 134.691 264.944 126.337 272.525C113.733 283.979 103.319 298.333 95.2728 315.247C91.3309 323.509 88.3462 332.161 86.2698 341.12C85.767 343.161 85.329 345.251 84.9559 347.357C84.9397 347.373 84.9397 347.389 84.9397 347.389C79.9272 363.93 64.3221 376 45.7971 376C26.8828 376 10.9857 363.363 6.37879 346.239C5.97325 344.846 5.66503 343.388 5.45415 341.913C5.14594 339.986 5 337.977 5 335.952C5 335.19 5.01619 334.413 5.06485 333.667C5.53527 330.654 6.05433 327.641 6.65453 324.66C8.84444 313.432 11.813 302.465 15.6251 291.707C26.6719 260.569 43.153 234.81 63.3488 212.68C70.2105 205.179 77.2993 198.099 84.5504 191.295C94.8024 181.623 105.363 172.486 115.923 163.397C127.797 153.174 139.687 143.016 151.594 132.826C162.446 123.543 173.298 114.276 184.118 104.928C199.058 92.0162 211.484 75.9935 219.481 55.0783C222.174 48.0471 224.185 40.8055 225.58 33.3855C225.694 32.6889 225.824 32.0084 225.953 31.328C229.538 14.0255 245.03 1.00001 263.588 1.00001C284.822 0.983811 302 17.9946 302 38.9585Z" fill="#65BBB0"/>
</svg>
